<svg width="143px" height="143px" xmlns="http://www.w3.org/2000/svg" xmlns:xlink="http://www.w3.org/1999/xlink" version="1.1" x="0px" y="0px" viewBox="-370 248.28 100 100" fill="#fff">
  <g>
    <path d="M-353.3,286.703c0-8.754,3.581-17.309,9.948-23.675c5.969-5.969,13.728-9.152,21.885-9.152   c0.199,0,0.398,0,0.597,0c17.309,0.597,31.235,14.722,31.235,32.031v1.99c0,6.565-5.372,11.937-11.937,11.937h-39.79   c-6.565,0-11.937-5.372-11.937-11.937v-1.194H-353.3z">
    </path>
  </g>
  <g>
    <path d="M-335.357,342.116c-1.513,0-3.269-0.54-5.09-2.202c-0.612-0.559-0.655-1.508-0.097-2.119   c0.559-0.612,1.507-0.654,2.119-0.098c1.72,1.572,3.416,1.83,5.179,0.793c0.773-0.453,1.358-1.236,1.565-2.095   c0.121-0.501,0.168-1.25-0.292-1.975c-0.963-1.516-2.086-2.868-2.653-3.372c-0.586-0.521-1.434-1.364-1.921-1.969   c-13.222-16.36,1.064-30.197,1.21-30.335c0.602-0.568,1.552-0.542,2.121,0.06c0.568,0.601,0.542,1.549-0.058,2.118   c-0.513,0.489-12.394,12.097-0.938,26.273c0.363,0.449,1.103,1.186,1.581,1.61c0.886,0.788,2.169,2.397,3.19,4.005   c0.8,1.259,1.041,2.781,0.677,4.288c-0.4,1.657-1.479,3.107-2.962,3.979C-332.573,341.575-333.843,342.116-335.357,342.116z">
    </path>
  </g>
  <g>
    <path d="M-307.002,336.227c-1.342,0-2.469-0.48-3.22-0.922c-1.317-0.773-2.278-2.062-2.635-3.538   c-0.325-1.347-0.11-2.709,0.605-3.837c0.883-1.387,1.994-2.781,2.769-3.471c0.401-0.356,1.021-0.974,1.329-1.354   c9.712-12.019-0.35-21.772-0.782-22.182c-0.603-0.568-0.629-1.518-0.06-2.12c0.569-0.603,1.519-0.628,2.12-0.06   c0.126,0.12,12.49,12.095,1.055,26.248c-0.43,0.531-1.164,1.262-1.668,1.709c-0.474,0.422-1.418,1.562-2.23,2.839   c-0.353,0.556-0.315,1.135-0.222,1.523c0.164,0.678,0.627,1.297,1.238,1.655c1.437,0.844,2.765,0.637,4.175-0.651   c0.613-0.558,1.561-0.516,2.119,0.096c0.559,0.612,0.516,1.561-0.096,2.119C-304.112,335.75-305.664,336.227-307.002,336.227z">
    </path>
  </g>
  <g>
    <path d="M-319.941,331.248c-1.391,0-2.771-0.573-4.007-1.701c-0.612-0.559-0.655-1.507-0.097-2.119   c0.558-0.61,1.507-0.655,2.119-0.096c1.116,1.018,2.158,1.186,3.282,0.525c0.467-0.274,0.82-0.748,0.945-1.266   c0.069-0.287,0.098-0.714-0.159-1.119c-0.682-1.071-1.464-2.019-1.854-2.365c-0.439-0.391-1.075-1.023-1.442-1.478   c-7.879-9.751-2.846-19.053,0.916-22.608c0.602-0.57,1.552-0.542,2.12,0.06c0.568,0.601,0.543,1.549-0.057,2.118   c-0.362,0.346-8.727,8.545-0.646,18.545c0.25,0.309,0.768,0.823,1.104,1.122c0.667,0.593,1.629,1.798,2.392,2.997   c0.642,1.01,0.835,2.229,0.545,3.432c-0.317,1.312-1.171,2.461-2.344,3.149C-318.04,330.982-318.993,331.248-319.941,331.248z">
    </path>
  </g>
</svg>
